PathFileType   4   (X/Y/Z)
DataRate	CameraRate	NumFrames	NumMarkers	Units	OrigDataRate	OrigDataStartFrame	OrigNumFrames
120.0	120.0	6	37	mm	120.0	88	116
Frame#	Time	midhip	hip_r	hip_l	knee_r	knee_l	ankle_r	ankle_l	midasis	asis_r	asis_l	psis_r	psis_l	epicondLat_r	epicondLat_l	epicondMed_r	epicondMed_l	malleolusLat_r	malleolusLat_l	malleolusMedv_r	malleolusMedv_l	neck	subclavicle_r	subclavicle_l	sternalnotch	xyphoidprocess	thighwand_r	thighwand_l	upperleg1_r	upperleg1_l	upperleg2_r	upperleg2_l	shankwand_r	shankwand_l	lowerleg1_r	lowerleg1_l	toe_r	toe_l
 	 	X1	Y1	Z1	X2	Y2	Z2	X3	Y3	Z3	X4	Y4	Z4	X5	Y5	Z5	X6	Y6	Z6	X7	Y7	Z7	X8	Y8	Z8	X9	Y9	Z9	X10	Y10	Z10	X11	Y11	Z11	X12	Y12	Z12	X13	Y13	Z13	X14	Y14	Z14	X15	Y15	Z15	X16	Y16	Z16	X17	Y17	Z17	X18	Y18	Z18	X19	Y19	Z19	X20	Y20	Z20	X21	Y21	Z21	X22	Y22	Z22	X23	Y23	Z23	X24	Y24	Z24	X25	Y25	Z25	X26	Y26	Z26	X27	Y27	Z27	X28	Y28	Z28	X29	Y29	Z29	X30	Y30	Z30	X31	Y31	Z31	X32	Y32	Z32	X33	Y33	Z33	X34	Y34	Z34	X35	Y35	Z35	X36	Y36	Z36	X37	Y37	Z37

	88	0.85833	1368.931	824.388	-264.402	1369.433	811.393	-189.946	1353.661	820.631	-340.971	1372.402	438.616	-212.920	1471.455	439.287	-369.515	1313.300	65.726	-234.076	1325.833	122.453	-344.866	1452.231	889.629	-267.363	1460.489	882.455	-151.465	1443.973	896.803	-383.261	1262.199	948.910	-221.978	1254.134	945.325	-275.830	1381.061	435.157	-155.674	1487.529	448.368	-424.499	1363.707	447.158	-261.577	1498.868	453.603	-305.319	1298.769	65.915	-196.809	1311.648	126.076	-382.091	1328.432	73.542	-265.548	1339.467	129.497	-320.350	1343.127	1388.844	-252.626	1474.332	1332.239	-221.906	1459.880	1327.381	-326.394	1463.843	1326.279	-272.864	1505.320	1258.247	-279.433	1529.811	578.313	-233.098	1503.576	598.029	-499.927	1473.870	626.755	-166.964	1426.471	619.986	-445.437	1458.542	539.895	-169.888	1461.777	540.519	-437.191	1301.496	139.902	-121.126	1463.901	196.063	-348.895	1307.103	150.269	-163.695	1425.465	211.365	-355.310	1407.999	37.772	-205.293	1408.023	59.997	-367.658
	89	0.86667	1382.966	829.103	-265.403	1377.931	810.731	-190.158	1362.570	820.281	-341.207	1375.112	438.545	-213.361	1484.671	440.241	-367.844	1313.055	66.087	-234.570	1352.231	116.533	-344.386	1461.058	888.979	-267.210	1469.006	881.568	-151.228	1453.111	896.390	-383.192	1270.869	948.596	-222.266	1262.858	945.016	-276.265	1383.342	434.911	-156.063	1500.631	449.226	-422.876	1367.745	447.484	-262.382	1511.264	455.136	-304.109	1298.536	66.384	-197.299	1337.777	119.754	-381.544	1327.366	74.176	-266.388	1365.675	124.155	-320.197	1352.439	1388.588	-252.508	1483.852	1331.476	-221.301	1469.058	1326.996	-326.190	1473.150	1325.754	-272.575	1514.448	1257.581	-279.369	1535.398	575.974	-232.486	1515.066	598.264	-499.046	1479.497	625.532	-166.584	1437.900	620.359	-445.303	1463.032	538.765	-169.779	1473.924	540.937	-436.516	1301.808	140.057	-121.553	1487.090	196.152	-348.480	1307.054	150.429	-164.132	1447.727	209.967	-354.811	1408.019	37.711	-205.343	1437.458	58.999	-368.288
	90	0.87500	1393.153	830.251	-266.016	1386.429	809.910	-190.355	1371.424	819.694	-341.424	1377.936	438.430	-213.811	1497.668	441.006	-366.158	1312.788	66.453	-235.153	1378.858	110.864	-344.049	1469.865	888.119	-267.112	1477.548	880.526	-150.990	1462.181	895.713	-383.235	1279.491	948.105	-222.524	1271.543	944.549	-276.692	1385.756	434.630	-156.467	1513.423	449.858	-421.271	1372.353	447.888	-263.688	1521.542	455.212	-303.091	1298.269	66.858	-197.883	1364.184	113.660	-381.155	1326.697	74.860	-267.074	1391.659	118.375	-319.922	1361.639	1387.978	-252.402	1493.274	1330.474	-220.650	1478.151	1326.637	-325.855	1482.523	1325.099	-272.320	1523.568	1256.871	-279.406	1541.041	573.676	-231.925	1526.126	598.189	-498.216	1484.607	624.180	-165.714	1448.264	620.268	-444.850	1467.581	538.004	-169.628	1484.756	540.572	-435.749	1302.102	140.267	-122.092	1510.254	196.459	-348.056	1307.364	150.696	-164.345	1470.651	209.216	-354.006	1408.095	37.691	-205.417	1466.902	58.236	-369.199
	91	0.88333	1399.755	827.733	-266.320	1394.934	808.951	-190.528	1380.215	818.902	-341.614	1380.943	438.266	-214.267	1510.408	441.577	-364.480	1312.629	66.793	-235.796	1405.669	105.503	-343.833	1478.652	887.074	-267.065	1486.127	879.348	-150.765	1471.178	894.800	-383.365	1288.087	947.460	-222.754	1280.260	943.936	-277.071	1388.374	434.311	-156.881	1525.875	450.261	-419.701	1377.070	447.488	-263.677	1532.680	454.757	-302.085	1298.047	67.316	-198.552	1390.817	107.855	-380.899	1326.072	75.234	-267.871	1418.878	112.739	-319.841	1371.129	1386.904	-252.153	1502.370	1329.811	-220.518	1487.924	1325.954	-325.617	1491.925	1324.289	-272.087	1533.228	1256.299	-278.998	1546.750	571.406	-231.405	1536.765	597.814	-497.451	1490.094	623.187	-165.155	1458.220	619.044	-443.760	1472.397	536.777	-169.145	1495.193	540.145	-434.739	1302.356	140.570	-122.770	1533.328	197.006	-347.634	1307.620	150.937	-164.949	1493.567	207.761	-353.413	1408.217	37.726	-205.503	1496.305	57.715	-370.314
	92	0.89167	1408.573	827.226	-266.871	1403.450	807.880	-190.679	1388.949	817.937	-341.780	1384.225	438.059	-214.727	1522.868	441.949	-362.826	1312.703	67.076	-236.467	1432.624	100.510	-343.716	1487.428	885.870	-267.067	1494.746	878.058	-150.568	1480.110	893.682	-383.566	1296.694	946.690	-222.959	1289.065	943.179	-277.371	1391.283	433.958	-157.304	1537.975	450.428	-418.179	1381.826	446.980	-264.231	1545.631	455.440	-300.356	1297.951	67.741	-199.293	1417.629	102.400	-380.751	1325.727	75.834	-268.611	1446.673	107.784	-319.875	1380.383	1385.956	-251.807	1511.550	1329.041	-220.389	1497.841	1325.190	-325.581	1501.329	1323.319	-271.881	1542.982	1255.622	-278.677	1552.545	569.148	-230.910	1546.999	597.148	-496.762	1495.816	622.116	-165.182	1467.856	617.419	-442.687	1477.161	535.259	-169.130	1506.128	539.533	-433.380	1302.570	140.983	-123.587	1556.243	197.820	-347.225	1307.664	151.471	-165.459	1515.929	206.597	-352.935	1408.358	37.822	-205.592	1525.605	57.460	-371.561
	93	0.90000	1417.120	825.927	-266.143	1411.989	806.717	-190.813	1397.642	816.820	-341.925	1387.790	437.813	-215.175	1535.046	442.119	-361.211	1313.077	67.296	-237.144	1459.687	95.945	-343.682	1496.202	884.532	-267.120	1503.415	876.678	-150.411	1488.990	892.386	-383.830	1305.351	945.823	-223.139	1297.976	942.275	-277.576	1394.487	433.579	-157.719	1549.723	450.358	-416.715	1387.304	445.920	-265.533	1557.152	456.759	-298.249	1298.040	68.131	-200.087	1444.579	97.360	-380.692	1326.851	76.048	-268.905	1474.471	103.641	-320.050	1389.497	1385.134	-251.699	1521.003	1327.742	-220.233	1507.408	1324.025	-325.394	1510.735	1322.197	-271.726	1552.375	1254.331	-278.538	1558.455	566.886	-230.423	1556.848	596.196	-496.152	1501.286	619.941	-165.314	1477.280	616.492	-442.216	1482.302	533.976	-169.432	1516.617	538.799	-432.085	1302.768	141.502	-124.523	1578.933	198.932	-346.839	1308.425	152.562	-166.021	1538.347	206.176	-352.279	1408.494	37.970	-205.688	1554.746	57.500	-372.861
